<svg width="264" height="122" viewBox="0 0 264 122" fill="none" xmlns="http://www.w3.org/2000/svg">
<path d="M0 1.7453L8.56376 4.71122L18.3087 2.55419L25.1007 3.90234L29.8255 1.7453L39.2752 2.82382L47.5436 1.47567L55.2215 2.82382L64.0805 1.47567L73.2349 2.01493L82.094 1.20604L90.0671 2.28456L98.6309 1.20604L105.681 2.82382L113.396 1.20604L122.55 2.01493L131.409 0.397156L148.242 3.36308L155.034 0.936414L167.732 2.28456L170.389 3.63271L183.087 0.397156L196.376 4.71122L202.577 2.28456L215.275 4.71122L225.02 5.52011L227.087 3.63271L231.517 4.71122L240.376 0.936414L252.188 2.82382L264 1.7453V122H0V1.7453Z" fill="#274124"/>
<path d="M132.691 122C132.691 70.2873 174.613 28.3658 226.326 28.3658H264V122H132.691Z" fill="#131E12"/>
</svg>
