<svg width="214" height="101" viewBox="0 0 214 101" fill="none" xmlns="http://www.w3.org/2000/svg">
<path d="M0 1.11688L6.94183 3.57403L14.8412 1.78701L20.3468 2.9039L24.1767 1.11688L31.8367 2.01039L38.5392 0.893506L44.7629 2.01039L51.9441 0.893506L59.3647 1.34026L66.5459 0.67013L73.009 1.56364L79.9508 0.67013L85.6658 2.01039L91.9195 0.67013L99.34 1.34026L106.521 0L120.166 2.45714L125.671 0.446753L135.964 1.56364L138.119 2.68052L148.412 0L159.183 3.57403L164.21 1.56364L174.503 3.57403L179.827 1.51114L184.078 2.68052L187.669 3.57403L194.85 0.446753L204.425 2.01039L214 1.11688V100.743H0V1.11688Z" fill="#CACACA"/>
<path d="M100 101C100 55.8282 136.619 19.209 181.791 19.209H214V101H100Z" fill="#ABABAB"/>
</svg>
