<svg width="214" height="101" viewBox="0 0 214 101" fill="none" xmlns="http://www.w3.org/2000/svg">
<path d="M0 1.11973L6.94183 3.58315L14.8412 1.79157L20.3468 2.91131L24.1767 1.11973L31.8367 2.01552L38.5392 0.895787L44.7629 2.01552L51.9441 0.895787L59.3647 1.34368L66.5459 0.67184L73.0089 1.56763L79.9508 0.67184L85.6658 2.01552L91.9195 0.67184L99.34 1.34368L106.521 0L120.166 2.46341L125.671 0.447894L135.964 1.56763L138.119 2.68736L148.412 0L159.183 3.58315L164.21 1.56763L174.503 3.58315L182.403 4.25499L184.078 2.68736L187.669 3.58315L194.85 0.447894L204.425 2.01552L214 1.11973V101H0V1.11973Z" fill="#3C441B"/>
<path d="M100 101C100 55.7127 136.713 19 182 19H214V101H100Z" fill="#181D07"/>
</svg>
