<svg width="215" height="113" viewBox="0 0 215 113" fill="none" xmlns="http://www.w3.org/2000/svg">
<path d="M0 2.15658L6.94592 4.89039L14.8499 2.90216L20.3587 4.1448L24.191 2.15658L31.8554 3.15069L38.5619 1.90805L44.7892 3.15069L51.9747 1.90805L59.3996 2.40511L66.5851 1.65952L73.052 2.65364L79.9979 1.65952L85.7163 3.15069L91.9736 1.65952L99.3986 2.40511L106.584 0.91394L120.236 3.64775L125.745 1.411L136.044 2.65364L138.2 3.89628L148.499 0.91394L159.277 4.89039L164.307 2.65364L174.606 4.89039L182.51 5.63597L184.187 3.89628L187.779 4.89039L194.965 1.411L204.545 3.15069L214.126 2.15658V113H0V2.15658Z" fill="#3C441B"/>
<path d="M100.26 113C100.26 62.9252 140.853 22.3316 190.928 22.3316H214.126V113H100.26V113Z" fill="#181D07"/>
</svg>
