<svg width="129" height="68" viewBox="0 0 129 68" fill="none" xmlns="http://www.w3.org/2000/svg">
<path d="M0 1.4981L4.18456 3.13828L8.94631 1.94542L12.2651 2.69096L14.5738 1.4981L19.1913 2.09453L23.2315 1.34899L26.9832 2.09453L31.3121 1.34899L35.7852 1.64721L40.1141 1.19989L44.0101 1.79631L48.1946 1.19989L51.6397 2.09453L55.4094 1.19989L59.8825 1.64721L64.2114 0.752563L72.4362 2.39274L75.755 1.05078L81.9597 1.79631L83.2584 2.54185L89.4631 0.752563L95.9564 3.13828L98.9866 1.79631L105.191 3.13828L108.401 1.76127L110.963 2.54185L113.128 3.13828L117.456 1.05078L123.228 2.09453L129 1.4981V68H0V1.4981Z" fill="#CACACA"/>
</svg>
