<svg width="265" height="122" viewBox="0 0 265 122" fill="none" xmlns="http://www.w3.org/2000/svg">
<path d="M0 1.7453L8.5962 4.71122L18.3781 2.55419L25.1958 3.90234L29.9385 1.7453L39.4239 2.82382L47.7237 1.47567L55.4306 2.82382L64.3233 1.47567L73.5123 2.01493L82.4049 1.20604L90.4083 2.28456L99.0045 1.20604L106.082 2.82382L113.826 1.20604L123.015 2.01493L131.907 0.397156L148.803 3.36308L155.621 0.936414L168.367 2.28456L171.035 3.63271L183.781 0.397156L197.12 4.71122L203.345 2.28456L216.091 4.71122L222.683 2.2212L227.947 3.63271L232.394 4.71122L241.286 0.936414L253.143 2.82382L265 1.7453V122H0V1.7453Z" fill="#CACACA"/>
<path d="M133.193 122C133.193 70.2873 175.115 28.3658 226.828 28.3658H265V122H133.193Z" fill="#ABABAB"/>
</svg>
