<svg width="264" height="122" viewBox="0 0 264 122" fill="none" xmlns="http://www.w3.org/2000/svg">
<path d="M0 1.74524L8.56376 4.71116L18.3087 2.55413L25.1007 3.90228L29.8255 1.74524L39.2752 2.82376L47.5436 1.47561L55.2215 2.82376L64.0805 1.47561L73.2349 2.01487L82.094 1.20598L90.0671 2.2845L98.6309 1.20598L105.681 2.82376L113.396 1.20598L122.55 2.01487L131.409 0.397095L148.242 3.36302L155.034 0.936353L167.732 2.2845L170.389 3.63265L183.087 0.397095L196.376 4.71116L202.577 2.2845L215.275 4.71116L225.02 5.52005L227.087 3.63265L231.517 4.71116L240.376 0.936353L252.188 2.82376L264 1.74524V122H0V1.74524Z" fill="#274124"/>
<path d="M132.691 122C132.691 70.2872 174.613 28.3658 226.325 28.3658H264V122H132.691Z" fill="#131E12"/>
</svg>
