<svg width="299" height="157" viewBox="0 0 299 157" fill="none" xmlns="http://www.w3.org/2000/svg">
<path d="M0 1.74058L9.69911 5.56984L20.736 2.78492L28.4284 4.5255L33.7796 1.74058L44.4821 3.13304L53.8468 1.39246L62.5425 3.13304L72.5761 1.39246L82.9441 2.08869L92.9776 1.04435L102.008 2.43681L111.707 1.04435L119.692 3.13304L128.43 1.04435L138.798 2.08869L148.831 0L167.895 3.82927L175.587 0.696231L189.969 2.43681L192.979 4.17738L207.36 0L222.411 5.56984L229.434 2.43681L243.815 5.56984L254.852 6.61419L257.194 4.17738L262.21 5.56984L272.244 0.696231L285.622 3.13304L299 1.74058V157H0V1.74058Z" fill="#3C441B"/>
<path d="M140 157C140 86.8598 196.86 30 267 30H299V157H140Z" fill="#181D07"/>
</svg>
