<svg width="299" height="138" viewBox="0 0 299 138" fill="none" xmlns="http://www.w3.org/2000/svg">
<path d="M0 1.52584L9.69911 4.88268L20.736 2.44134L28.4284 3.96718L33.7796 1.52584L44.4821 2.74651L53.8468 1.22067L62.5425 2.74651L72.5761 1.22067L82.9441 1.83101L92.9776 0.915503L102.008 2.13617L111.707 0.915503L119.692 2.74651L128.43 0.915503L138.798 1.83101L148.831 0L167.895 3.35685L175.587 0.610336L189.969 2.13617L192.979 3.66201L207.36 0L222.411 4.88268L229.434 2.13617L243.815 4.88268L254.852 5.79819L257.194 3.66201L262.21 4.88268L272.244 0.610336L285.622 2.74651L299 1.52584V137.631H0V1.52584Z" fill="#274124"/>
</svg>
