<svg width="299" height="157" viewBox="0 0 299 157" fill="none" xmlns="http://www.w3.org/2000/svg">
<path d="M0 1.73592L9.69911 5.55494L20.736 2.77747L28.4284 4.51339L33.7796 1.73592L44.4821 3.12465L53.8468 1.38873L62.5425 3.12465L72.5761 1.38873L82.9441 2.0831L92.9776 1.04155L102.008 2.43029L111.707 1.04155L119.692 3.12465L128.43 1.04155L138.798 2.0831L148.831 0L167.895 3.81902L175.587 0.694367L189.969 2.43029L192.979 4.1662L207.36 0L222.411 5.55494L229.434 2.43029L243.815 5.55494L254.852 6.59649L257.194 4.1662L262.21 5.55494L272.244 0.694367L285.622 3.12465L299 1.73592V156.58H0V1.73592Z" fill="#274124"/>
<path d="M150.283 157C150.283 90.4131 204.262 36.4336 270.849 36.4336H299V157H150.283V157Z" fill="#131E12"/>
</svg>
